<svg width="152" height="35" viewBox="0 0 152 35" fill="none" xmlns="http://www.w3.org/2000/svg">
<g clip-path="url(#clip0_2329_2)">
<path d="M49.9894 6.94021V28.0002H44.8594V6.94021H49.9894ZM63.9071 11.0802C65.8671 11.0802 67.4271 11.7202 68.5871 13.0002C69.7671 14.2602 70.3571 16.0002 70.3571 18.2202V28.0002H65.2571V18.9102C65.2571 17.7902 64.9671 16.9202 64.3871 16.3002C63.8071 15.6802 63.0271 15.3702 62.0471 15.3702C61.0671 15.3702 60.2871 15.6802 59.7071 16.3002C59.1271 16.9202 58.8371 17.7902 58.8371 18.9102V28.0002H53.7071V11.2602H58.8371V13.4802C59.3571 12.7402 60.0571 12.1602 60.9371 11.7402C61.8171 11.3002 62.8071 11.0802 63.9071 11.0802ZM72.9019 19.6002C72.9019 17.8802 73.2219 16.3702 73.8619 15.0702C74.5219 13.7702 75.4119 12.7702 76.5319 12.0702C77.6519 11.3702 78.9019 11.0202 80.2819 11.0202C81.3819 11.0202 82.3819 11.2502 83.2819 11.7102C84.2019 12.1702 84.9219 12.7902 85.4419 13.5702V5.80022H90.5719V28.0002H85.4419V25.6002C84.9619 26.4002 84.2719 27.0402 83.3719 27.5202C82.4919 28.0002 81.4619 28.2402 80.2819 28.2402C78.9019 28.2402 77.6519 27.8902 76.5319 27.1902C75.4119 26.4702 74.5219 25.4602 73.8619 24.1602C73.2219 22.8402 72.9019 21.3202 72.9019 19.6002ZM85.4419 19.6302C85.4419 18.3502 85.0819 17.3402 84.3619 16.6002C83.6619 15.8602 82.8019 15.4902 81.7819 15.4902C80.7619 15.4902 79.8919 15.8602 79.1719 16.6002C78.4719 17.3202 78.1219 18.3202 78.1219 19.6002C78.1219 20.8802 78.4719 21.9002 79.1719 22.6602C79.8919 23.4002 80.7619 23.7702 81.7819 23.7702C82.8019 23.7702 83.6619 23.4002 84.3619 22.6602C85.0819 21.9202 85.4419 20.9102 85.4419 19.6302ZM110.813 11.2602V28.0002H105.683V25.7202C105.163 26.4602 104.453 27.0602 103.553 27.5202C102.673 27.9602 101.693 28.1802 100.613 28.1802C99.3332 28.1802 98.2032 27.9002 97.2232 27.3402C96.2432 26.7602 95.4832 25.9302 94.9432 24.8502C94.4032 23.7702 94.1332 22.5002 94.1332 21.0402V11.2602H99.2332V20.3502C99.2332 21.4702 99.5232 22.3402 100.103 22.9602C100.683 23.5802 101.463 23.8902 102.443 23.8902C103.443 23.8902 104.233 23.5802 104.813 22.9602C105.393 22.3402 105.683 21.4702 105.683 20.3502V11.2602H110.813ZM119.628 14.0502C120.228 13.1302 120.978 12.4102 121.878 11.8902C122.778 11.3502 123.778 11.0802 124.878 11.0802V16.5102H123.468C122.188 16.5102 121.228 16.7902 120.588 17.3502C119.948 17.8902 119.628 18.8502 119.628 20.2302V28.0002H114.498V11.2602H119.628V14.0502ZM129.91 9.52022C129.01 9.52022 128.27 9.26021 127.69 8.74021C127.13 8.20021 126.85 7.54022 126.85 6.76022C126.85 5.96022 127.13 5.30022 127.69 4.78022C128.27 4.24022 129.01 3.97021 129.91 3.97021C130.79 3.97021 131.51 4.24022 132.07 4.78022C132.65 5.30022 132.94 5.96022 132.94 6.76022C132.94 7.54022 132.65 8.20021 132.07 8.74021C131.51 9.26021 130.79 9.52022 129.91 9.52022ZM132.46 11.2602V28.0002H127.33V11.2602H132.46ZM142.987 28.2402C141.527 28.2402 140.227 27.9902 139.087 27.4902C137.947 26.9902 137.047 26.3102 136.387 25.4502C135.727 24.5702 135.357 23.5902 135.277 22.5102H140.347C140.407 23.0902 140.677 23.5602 141.157 23.9202C141.637 24.2802 142.227 24.4602 142.927 24.4602C143.567 24.4602 144.057 24.3402 144.397 24.1002C144.757 23.8402 144.937 23.5102 144.937 23.1102C144.937 22.6302 144.687 22.2802 144.187 22.0602C143.687 21.8202 142.877 21.5602 141.757 21.2802C140.557 21.0002 139.557 20.7102 138.757 20.4102C137.957 20.0902 137.267 19.6002 136.687 18.9402C136.107 18.2602 135.817 17.3502 135.817 16.2102C135.817 15.2502 136.077 14.3802 136.597 13.6002C137.137 12.8002 137.917 12.1702 138.937 11.7102C139.977 11.2502 141.207 11.0202 142.627 11.0202C144.727 11.0202 146.377 11.5402 147.577 12.5802C148.797 13.6202 149.497 15.0002 149.677 16.7202H144.937C144.857 16.1402 144.597 15.6802 144.157 15.3402C143.737 15.0002 143.177 14.8302 142.477 14.8302C141.877 14.8302 141.417 14.9502 141.097 15.1902C140.777 15.4102 140.617 15.7202 140.617 16.1202C140.617 16.6002 140.867 16.9602 141.367 17.2002C141.887 17.4402 142.687 17.6802 143.767 17.9202C145.007 18.2402 146.017 18.5602 146.797 18.8802C147.577 19.1802 148.257 19.6802 148.837 20.3802C149.437 21.0602 149.747 21.9802 149.767 23.1402C149.767 24.1202 149.487 25.0002 148.927 25.7802C148.387 26.5402 147.597 27.1402 146.557 27.5802C145.537 28.0202 144.347 28.2402 142.987 28.2402Z" fill="#1F212D"/>
<path d="M2.37991 21.588V20.2811H2.88673V17.5018H3.11989V16.9326H5.18867V17.5018H5.42183V19.4535H6.55743V19.9821H7.38914V23.4816H7.81498V20.4496H9.66084V22.3201H10.016V14.5941H10.1175V13.9026L11.9162 13.6077L13.7482 13.9026V14.5941H13.9511V19.8198H14.5901V20.1655H15.077V18.6443H15.4116V13.4957H15.6499V12.5505H15.9743V11.991H17.258L17.4035 10.3789H17.5972L17.7427 11.991H19.0264V12.5505H19.3508V13.4957H19.5891V18.6438H19.9237V20.165H20.4106V19.8192H21.0496V14.5941H21.2525V13.9026L23.0845 13.6077L24.8833 13.9026V14.5941H24.9847V22.3206H25.3399V20.4501H27.1857V23.4821H27.6116V19.9826H28.4433V19.454H29.5789V17.5023H29.812V16.9331H31.8808V17.5023H32.114V20.2816H32.6208V21.5885L33.9957 22.8944C34.0838 22.9782 34.11 23.102 34.0633 23.2145L33.2449 25.1862C33.1983 25.2987 33.0922 25.3675 32.9703 25.3634L30.9891 25.3028C30.8241 25.2977 30.6806 25.3752 30.594 25.516C30.3793 25.8659 30.1508 26.207 29.9094 26.5373C29.812 26.6709 29.7946 26.8342 29.8622 26.9853L30.6714 28.8008C30.7211 28.9123 30.6981 29.0366 30.612 29.1229L29.1038 30.6312C29.0177 30.7175 28.8937 30.7401 28.7825 30.6898L26.973 29.874C26.8224 29.8062 26.6594 29.8231 26.5262 29.9202C26.1957 30.1612 25.8554 30.3893 25.5059 30.6035C25.3655 30.6893 25.2876 30.8336 25.2922 30.9991L25.3481 32.9857C25.3516 33.1079 25.283 33.2138 25.1702 33.2605L23.2019 34.0763C23.0897 34.1231 22.9662 34.0963 22.8826 34.0075L21.5236 32.5634C21.4104 32.4432 21.2541 32.3964 21.0937 32.4349C20.6975 32.53 20.2958 32.6101 19.8884 32.6738C19.7254 32.6995 19.5978 32.8028 19.5394 32.9574L18.8338 34.814C18.7902 34.9281 18.6867 35 18.5647 35H16.435C16.313 35 16.2095 34.9281 16.1659 34.814L15.4603 32.9574C15.4014 32.8028 15.2743 32.6995 15.1108 32.6738C14.7034 32.6101 14.3016 32.53 13.9055 32.4349C13.7451 32.3964 13.5883 32.4432 13.4756 32.5634L12.1165 34.0075C12.033 34.0963 11.9095 34.1231 11.7973 34.0763L9.82892 33.2605C9.71618 33.2138 9.64751 33.1079 9.6511 32.9857L9.70696 30.9991C9.71157 30.8342 9.63368 30.6898 9.49327 30.6035C9.14377 30.3893 8.8035 30.1612 8.47297 29.9202C8.33973 29.8231 8.17677 29.8062 8.02611 29.874L6.21664 30.6898C6.10544 30.7401 5.98143 30.717 5.89534 30.6312L4.38719 29.1229C4.3011 29.0366 4.27804 28.9123 4.32774 28.8008L5.13691 26.9853C5.20404 26.8342 5.18713 26.6709 5.08976 26.5373C4.8484 26.2065 4.62036 25.8659 4.40564 25.516C4.31955 25.3752 4.17555 25.2977 4.01054 25.3028L2.02939 25.3634C1.90743 25.367 1.80187 25.2987 1.75523 25.1862L0.936843 23.2145C0.89021 23.102 0.916345 22.9782 1.00449 22.8944L2.37991 21.588ZM17.2667 13.3154V13.7829H17.733V13.3154H17.2667ZM17.2667 14.4235V14.891H17.733V14.4235H17.2667ZM17.2667 15.5316V15.9991H17.733V15.5316H17.2667ZM17.2667 16.6398V17.1073H17.733V16.6398H17.2667ZM17.2667 17.7479V18.2154H17.733V17.7479H17.2667ZM17.2667 18.856V19.3235H17.733V18.856H17.2667ZM17.2667 19.9641V20.4321H17.733V19.9641H17.2667ZM17.2667 21.0722V21.5397H17.733V21.0722H17.2667ZM17.2667 22.1803V22.6478H17.733V22.1803H17.2667ZM31.6107 19.1509H31.1444V19.6184H31.6107V19.1509ZM31.6107 20.259H31.1444V20.7265H31.6107V20.259ZM31.6107 21.3671H31.1444V21.8346H31.6107V21.3671ZM31.6107 22.4752H31.1444V22.9427H31.6107V22.4752ZM30.5464 18.5103H30.08V18.9777H30.5464V18.5103ZM30.5464 19.6184H30.08V20.0859H30.5464V19.6184ZM30.5464 20.7265H30.08V21.194H30.5464V20.7265ZM30.5464 21.8346H30.08V22.3021H30.5464V21.8346ZM30.5464 22.9427H30.08V23.4102H30.5464V22.9427ZM31.6107 18.0428H31.1444V18.5103H31.6107V18.0428ZM29.2786 21.2145H28.8122V21.682H29.2786V21.2145ZM29.2786 22.3227H28.8122V22.7901H29.2786V22.3227ZM29.2786 23.4308H28.8122V23.8983H29.2786V23.4308ZM28.3761 20.5739H27.9098V21.0414H28.3761V20.5739ZM28.3761 21.682H27.9098V22.1495H28.3761V21.682ZM28.3761 22.7901H27.9098V23.2576H28.3761V22.7901ZM28.3761 23.8983H27.9098V24.3658H28.3761V23.8983ZM29.2786 20.1064H28.8122V20.5739H29.2786V20.1064ZM26.4918 21.8336V22.2302H26.8875V21.8336H26.4918ZM26.4918 20.8945V21.2911H26.8875V20.8945H26.4918ZM26.4918 22.7732V23.1698H26.8875V22.7732H26.4918ZM25.6361 21.8336V22.2302H26.0317V21.8336H25.6361ZM25.6361 22.7732V23.1698H26.0317V22.7732H25.6361ZM25.6361 23.7123V24.1089H26.0317V23.7123H25.6361ZM25.6361 20.8945V21.2911H26.0317V20.8945H25.6361ZM22.834 16.0808V16.5483H23.3003V16.0808H22.834ZM22.834 17.1889V17.6569H23.3003V17.1889H22.834ZM22.834 18.2971V18.7646H23.3003V18.2971H22.834ZM22.834 19.4052V19.8727H23.3003V19.4052H22.834ZM22.834 20.5133V20.9808H23.3003V20.5133H22.834ZM23.8988 15.4402V15.9077H24.3652V15.4402H23.8988ZM23.8988 16.5483V17.0158H24.3652V16.5483H23.8988ZM23.8988 17.6564V18.1239H24.3652V17.6564H23.8988ZM23.8988 18.7646V19.232H24.3652V18.7646H23.8988ZM23.8988 19.8727V20.3402H24.3652V19.8727H23.8988ZM24.3652 21.4483V20.9808H23.8988V21.4483H24.3652ZM22.2354 15.4402H21.7691V15.9077H22.2354V15.4402ZM22.2354 16.5483H21.7691V17.0158H22.2354V16.5483ZM22.2354 17.6564H21.7691V18.1239H22.2354V17.6564ZM22.2354 18.7646H21.7691V19.232H22.2354V18.7646ZM22.2354 19.8727H21.7691V20.3402H22.2354V19.8727ZM21.7691 21.4483H22.2354V20.9808H21.7691V21.4483ZM22.834 21.6214V22.0894H23.3003V21.6214H22.834ZM22.834 22.7295V23.197H23.3003V22.7295H22.834ZM22.834 23.8376V24.3051H23.3003V23.8376H22.834ZM23.8988 22.0889V22.5564H24.3652V22.0889H23.8988ZM23.8988 23.197V23.6645H24.3652V23.197H23.8988ZM22.2354 22.0889H21.7691V22.5564H22.2354V22.0889ZM22.2354 23.197H21.7691V23.6645H22.2354V23.197ZM22.834 14.9727V15.4402H23.3003V14.9727H22.834ZM18.3316 13.7829V14.2509H18.7979V13.7829H18.3316ZM18.3316 14.891V15.3585H18.7979V14.891H18.3316ZM18.3316 15.9991V16.4666H18.7979V15.9991H18.3316ZM18.3316 17.1073V17.5747H18.7979V17.1073H18.3316ZM18.3316 18.2154V18.6829H18.7979V18.2154H18.3316ZM18.7979 19.7915V19.324H18.3316V19.7915H18.7979ZM18.3316 20.4316V20.8991H18.7979V20.4316H18.3316ZM18.3316 21.5397V22.0072H18.7979V21.5397H18.3316ZM3.38893 19.1509V19.6184H3.85526V19.1509H3.38893ZM3.38893 20.259V20.7265H3.85526V20.259H3.38893ZM3.38893 21.3671V21.8346H3.85526V21.3671H3.38893ZM3.38893 22.4752V22.9427H3.85526V22.4752H3.38893ZM4.45381 18.5103V18.9777H4.92014V18.5103H4.45381ZM4.45381 19.6184V20.0859H4.92014V19.6184H4.45381ZM4.45381 20.7265V21.194H4.92014V20.7265H4.45381ZM4.45381 21.8346V22.3021H4.92014V21.8346H4.45381ZM4.45381 22.9427V23.4102H4.92014V22.9427H4.45381ZM3.38893 18.0428V18.5103H3.85526V18.0428H3.38893ZM5.7211 21.2145V21.682H6.18743V21.2145H5.7211ZM5.7211 22.3227V22.7901H6.18743V22.3227H5.7211ZM5.7211 23.4308V23.8983H6.18743V23.4308H5.7211ZM6.62353 20.5739V21.0414H7.09038V20.5739H6.62353ZM6.62353 21.682V22.1495H7.09038V21.682H6.62353ZM6.62353 22.7901V23.2576H7.09038V22.7901H6.62353ZM6.62353 23.8983V24.3658H7.09038V23.8983H6.62353ZM5.7211 20.1064V20.5739H6.18743V20.1064H5.7211ZM8.50782 21.8336H8.11221V22.2302H8.50782V21.8336ZM8.50782 20.8945H8.11221V21.2911H8.50782V20.8945ZM8.50782 22.7732H8.11221V23.1698H8.50782V22.7732ZM9.36361 21.8336H8.968V22.2302H9.36361V21.8336ZM9.36361 22.7732H8.968V23.1698H9.36361V22.7732ZM9.36361 23.7123H8.968V24.1089H9.36361V23.7123ZM9.36361 20.8945H8.968V21.2911H9.36361V20.8945ZM12.1657 16.0808H11.6994V16.5483H12.1657V16.0808ZM12.1657 17.1889H11.6994V17.6569H12.1657V17.1889ZM12.1657 18.2971H11.6994V18.7646H12.1657V18.2971ZM12.1657 19.4052H11.6994V19.8727H12.1657V19.4052ZM12.1657 20.5133H11.6994V20.9808H12.1657V20.5133ZM11.1008 15.4402H10.6345V15.9077H11.1008V15.4402ZM11.1008 16.5483H10.6345V17.0158H11.1008V16.5483ZM11.1008 17.6564H10.6345V18.1239H11.1008V17.6564ZM11.1008 18.7646H10.6345V19.232H11.1008V18.7646ZM11.1008 19.8727H10.6345V20.3402H11.1008V19.8727ZM10.6345 21.4483H11.1008V20.9808H10.6345V21.4483ZM12.7643 15.4402V15.9077H13.2306V15.4402H12.7643ZM12.7643 16.5483V17.0158H13.2306V16.5483H12.7643ZM12.7643 17.6564V18.1239H13.2306V17.6564H12.7643ZM12.7643 18.7646V19.232H13.2306V18.7646H12.7643ZM12.7643 19.8727V20.3402H13.2306V19.8727H12.7643ZM13.2306 21.4483V20.9808H12.7643V21.4483H13.2306ZM12.1657 21.6214H11.6994V22.0894H12.1657V21.6214ZM12.1657 22.7295H11.6994V23.197H12.1657V22.7295ZM12.1657 23.8376H11.6994V24.3051H12.1657V23.8376ZM11.1008 22.0889H10.6345V22.5564H11.1008V22.0889ZM11.1008 23.197H10.6345V23.6645H11.1008V23.197ZM12.7643 22.0889V22.5564H13.2306V22.0889H12.7643ZM12.7643 23.197V23.6645H13.2306V23.197H12.7643ZM12.1657 14.9727H11.6994V15.4402H12.1657V14.9727ZM16.6681 13.7829H16.2018V14.2509H16.6681V13.7829ZM16.6681 14.891H16.2018V15.3585H16.6681V14.891ZM16.6681 15.9991H16.2018V16.4666H16.6681V15.9991ZM16.6681 17.1073H16.2018V17.5747H16.6681V17.1073ZM16.6681 18.2154H16.2018V18.6829H16.6681V18.2154ZM16.2018 19.7915H16.6681V19.324H16.2018V19.7915ZM16.6681 20.4316H16.2018V20.8991H16.6681V20.4316ZM16.6681 21.5397H16.2018V22.0072H16.6681V21.5397Z" fill="#FF5E15"/>
<path fill-rule="evenodd" clip-rule="evenodd" d="M16.4349 0C16.3129 0 16.2094 0.0719224 16.1658 0.185971L15.4602 2.0426C15.4013 2.19723 15.2742 2.30049 15.1107 2.32618C14.7033 2.38988 14.3015 2.47002 13.9054 2.56506C13.745 2.60359 13.5882 2.55684 13.4755 2.43663L12.1164 0.992529C12.0329 0.903653 11.9094 0.876939 11.7972 0.923689L9.82884 1.74001C9.7161 1.78676 9.64743 1.89259 9.65102 2.01485L9.70688 4.00145C9.71149 4.16636 9.6336 4.31072 9.49319 4.39703C9.14369 4.61125 8.80342 4.83935 8.47289 5.08029C8.33965 5.17738 8.17669 5.19434 8.02603 5.12652L6.21708 4.31021C6.10587 4.25986 5.98186 4.28298 5.89577 4.36929L4.38762 5.8776C4.30153 5.96391 4.27847 6.08823 4.32818 6.19971L5.13734 8.01524C5.20447 8.16627 5.18756 8.32964 5.09019 8.46321C4.84883 8.79405 4.62079 9.13466 4.40607 9.48451C4.31998 9.62527 4.17598 9.70284 4.01097 9.69771L2.02983 9.63709C1.90786 9.63349 1.8023 9.70182 1.75567 9.81432L0.937279 11.786C0.890646 11.8985 0.91678 12.0223 1.00492 12.1061L2.44184 13.4711C2.56124 13.5846 2.60787 13.7418 2.56893 13.9026C2.4731 14.2997 2.39213 14.703 2.32756 15.1119C2.30143 15.2753 2.19791 15.4027 2.04366 15.4613L0.191148 16.164C0.0773836 16.2072 0.00564002 16.311 0.00512757 16.4332L2.72717e-06 18.5683C-0.000509725 18.6906 0.0712339 18.7949 0.184486 18.8385L2.03444 19.55C2.04879 19.5557 2.06314 19.5619 2.07697 19.5685H2.08312L2.33166 19.6641V16.9454H2.56483V16.3762H5.22497C5.8107 10.0969 11.0828 5.18201 17.4997 5.18201C23.9167 5.18201 29.1888 10.0969 29.7745 16.3762H32.4347V16.9454H32.6678V19.6641L32.9164 19.5685H32.9225C32.9364 19.5619 32.9502 19.5557 32.965 19.55L34.8155 18.8385C34.9293 18.7949 35.0005 18.6906 35 18.5683L34.9949 16.4332C34.9949 16.311 34.9231 16.2072 34.8089 16.164L32.9563 15.4613C32.8021 15.4027 32.6986 15.2753 32.6724 15.1119C32.6079 14.7035 32.5274 14.3002 32.4311 13.9026C32.3921 13.7423 32.4388 13.5851 32.5582 13.4711L33.9951 12.1061C34.0837 12.0223 34.1099 11.8985 34.0627 11.786L33.2443 9.81432C33.1977 9.70182 33.0916 9.63298 32.9702 9.63709L30.989 9.69771C30.8245 9.70284 30.6805 9.62527 30.5939 9.48451C30.3792 9.13466 30.1507 8.79354 29.9098 8.46321C29.8124 8.32964 29.795 8.16627 29.8627 8.01524L30.6718 6.19971C30.7215 6.08823 30.6985 5.96391 30.6124 5.8776L29.1042 4.36929C29.0181 4.28298 28.8941 4.26037 28.7829 4.31021L26.9735 5.12601C26.8228 5.19382 26.6598 5.17687 26.5266 5.07978C26.1961 4.83884 25.8563 4.61074 25.5063 4.39651C25.3659 4.31021 25.288 4.16636 25.2926 4.00094L25.3485 2.01434C25.3521 1.89207 25.2834 1.78624 25.1706 1.73949L23.2023 0.923175C23.0896 0.876426 22.9666 0.90314 22.8831 0.992015L21.5245 2.43611C21.4118 2.55633 21.255 2.60308 21.0946 2.56455C20.6985 2.46951 20.2967 2.38936 19.8893 2.32566C19.7258 2.29998 19.5987 2.19672 19.5398 2.04208L18.8337 0.185971C18.7906 0.0719224 18.6866 0 18.5646 0H16.4349Z" fill="#FF5E15"/>
</g>
<defs>
<clipPath id="clip0_2329_2">
<rect width="152" height="35" fill="white"/>
</clipPath>
</defs>
</svg>
