<svg width="15" height="11" viewBox="0 0 15 11" fill="none" xmlns="http://www.w3.org/2000/svg">
<path d="M9.20218 8.14378C9.44034 8.3477 9.79176 8.34697 10.029 8.14206L13.9374 4.76702C14.2092 4.53231 14.2096 4.11021 13.9374 3.87513L10.029 0.500121C9.79176 0.295213 9.44034 0.294478 9.20218 0.498396C8.90741 0.750791 8.90645 1.20637 9.20017 1.46001L11.3084 3.28057C11.6109 3.54165 11.7847 3.92148 11.7845 4.32103C11.7847 4.72064 11.6109 5.1005 11.3084 5.36164L9.20017 7.18217C8.90642 7.43578 8.90738 7.89139 9.20218 8.14378Z" fill="white"/>
<path d="M10.7948 4.76691L6.47377 8.49834C6.096 8.82461 5.49941 8.56062 5.49941 8.0524V5.98581C2.8315 6.2935 1.7897 7.43072 2.73522 10.4545C2.85882 10.8497 2.38109 11.1557 2.04592 10.9119C0.971766 10.1306 0 8.63622 0 7.12779C0 3.90336 2.32787 2.87268 5.49941 2.6215V0.589583C5.49941 0.0821905 6.09549 -0.183017 6.47377 0.143649L10.7948 3.87502C11.067 4.1101 11.0667 4.5322 10.7948 4.76691Z" fill="white"/>
</svg>
