<svg width="13" height="12" viewBox="0 0 13 12" fill="none" xmlns="http://www.w3.org/2000/svg">
<path d="M6.54547 11.9999C6.37527 12.0009 6.20863 11.9512 6.0668 11.8571C5.92497 11.763 5.81437 11.6288 5.7491 11.4716C5.68383 11.3144 5.66686 11.1414 5.70033 10.9745C5.73381 10.8076 5.81623 10.6545 5.93708 10.5346L10.4786 6.00166L5.93708 1.46871C5.79669 1.30478 5.72334 1.09392 5.73167 0.878262C5.74 0.662603 5.8294 0.458029 5.98201 0.305421C6.13462 0.152814 6.33919 0.0634124 6.55485 0.0550824C6.77051 0.0467524 6.98137 0.120108 7.14529 0.260489L12.2866 5.40184C12.4462 5.56239 12.5358 5.77957 12.5358 6.00595C12.5358 6.23232 12.4462 6.4495 12.2866 6.61005L7.14529 11.7514C6.98569 11.9097 6.77027 11.999 6.54547 11.9999Z" fill="white"/>
<path d="M1.40484 12C1.23464 12.001 1.06801 11.9513 0.926173 11.8572C0.78434 11.7631 0.67374 11.6289 0.608474 11.4717C0.543207 11.3145 0.526231 11.1414 0.559709 10.9746C0.593188 10.8077 0.675604 10.6546 0.796451 10.5347L5.33798 6.00175L0.796451 1.46879C0.635095 1.30743 0.544446 1.08859 0.544446 0.860398C0.544446 0.632206 0.635095 0.41336 0.796451 0.252005C0.957807 0.0906488 1.17665 1.70016e-09 1.40484 0C1.63304 -1.70016e-09 1.85188 0.0906488 2.01324 0.252005L7.15459 5.39335C7.31418 5.5539 7.40376 5.77108 7.40376 5.99746C7.40376 6.22384 7.31418 6.44102 7.15459 6.60157L2.01324 11.7429C1.93388 11.8239 1.83924 11.8883 1.7348 11.9324C1.63037 11.9765 1.51822 11.9995 1.40484 12Z" fill="white"/>
</svg>
