<svg width="18" height="17" viewBox="0 0 18 17" fill="none" xmlns="http://www.w3.org/2000/svg">
<path d="M9.0471 16.9986C8.80599 17 8.56993 16.9296 8.36902 16.7963C8.1681 16.663 8.01142 16.4729 7.91897 16.2503C7.82651 16.0276 7.80246 15.7824 7.84989 15.546C7.89731 15.3096 8.01406 15.0927 8.18525 14.9229L14.6187 8.50156L8.18525 2.08022C7.98639 1.848 7.88248 1.5493 7.89428 1.2438C7.90608 0.938298 8.03272 0.6485 8.2489 0.432317C8.46509 0.216135 8.75488 0.0894896 9.06038 0.0776894C9.36588 0.0658892 9.66459 0.169803 9.8968 0.368667L17.18 7.65186C17.4061 7.87929 17.533 8.18695 17.533 8.50764C17.533 8.82832 17.4061 9.13598 17.18 9.36341L9.8968 16.6466C9.67071 16.8709 9.36554 16.9973 9.0471 16.9986Z" fill="#FF5E15"/>
<path d="M1.76389 16.9991C1.52279 17.0005 1.28673 16.9301 1.08581 16.7968C0.884894 16.6635 0.728219 16.4734 0.635763 16.2507C0.543306 16.028 0.519258 15.7829 0.566683 15.5465C0.614108 15.3101 0.730859 15.0932 0.902049 14.9234L7.33554 8.50203L0.902049 2.08068C0.673474 1.8521 0.545061 1.54209 0.545061 1.21883C0.545061 0.895578 0.673474 0.585563 0.902049 0.356988C1.13062 0.128412 1.44064 2.40843e-09 1.76389 0C2.08715 -2.40843e-09 2.39716 0.128412 2.62574 0.356988L9.90893 7.64018C10.135 7.86761 10.2619 8.17527 10.2619 8.49596C10.2619 8.81664 10.135 9.1243 9.90893 9.35173L2.62574 16.6349C2.51332 16.7496 2.37925 16.8409 2.23131 16.9034C2.08337 16.9659 1.9245 16.9984 1.76389 16.9991Z" fill="#FF5E15"/>
</svg>
