<svg width="40" height="40" viewBox="0 0 40 40" fill="none" xmlns="http://www.w3.org/2000/svg">
<path d="M37.5438 16.9289C37.3875 12.4763 35.5844 8.31266 32.4183 5.14654C29.0997 1.82734 24.6892 0 20 0C10.5291 0 2.79045 7.53835 2.45687 16.9289C1.01158 17.5712 0 19.0178 0 20.699V25.3309C0 27.6053 1.8503 29.4563 4.12539 29.4563C5.59747 29.4563 6.79466 28.2591 6.79466 26.787V19.2423C6.79466 17.8601 5.7346 16.7331 4.3869 16.5992C4.8844 8.4179 11.695 1.91345 20 1.91345C24.179 1.91345 28.1086 3.54243 31.0661 6.49998C33.7819 9.21581 35.3714 12.7557 35.6105 16.5998C34.2641 16.735 33.206 17.8614 33.206 19.2423V26.7864C33.206 28.18 34.2826 29.314 35.6463 29.432V31.3385C35.6463 33.4853 33.8993 35.2317 31.7524 35.2317H28.8688C28.7272 34.8273 28.5053 34.4536 28.194 34.1436C27.6487 33.5957 26.9216 33.294 26.1473 33.294H23.175C22.7484 33.294 22.3389 33.3846 21.9638 33.5593C20.9408 34.0294 20.28 35.0614 20.28 36.1884C20.28 36.9627 20.5817 37.6898 21.1283 38.2339C21.6749 38.7818 22.402 39.0835 23.175 39.0835H26.1473C27.3795 39.0835 28.4657 38.2868 28.8707 37.1451H31.7524C34.9549 37.1451 37.5597 34.5403 37.5597 31.3385V29.0914C38.9961 28.4453 40 27.0039 40 25.3296V20.6978C40 19.0178 38.9884 17.5712 37.5438 16.9289ZM4.88057 19.2423V26.7864C4.88057 27.2029 4.54189 27.5422 4.12476 27.5422C2.90525 27.5422 1.91281 26.5497 1.91281 25.3302V20.6984C1.91281 19.4783 2.90525 18.4865 4.12476 18.4865C4.54189 18.4865 4.88057 18.8258 4.88057 19.2423ZM27.1072 36.3938C27.0122 36.8441 26.6078 37.1713 26.1466 37.1713H23.1744C22.9129 37.1713 22.6673 37.0692 22.4798 36.8817C22.2949 36.6974 22.1928 36.4512 22.1928 36.1897C22.1928 35.8076 22.4167 35.4588 22.7675 35.2974C22.8925 35.2387 23.0296 35.2087 23.1744 35.2087H26.1466C26.4081 35.2087 26.6537 35.3101 26.8406 35.4977C27.0255 35.682 27.1276 35.9282 27.1276 36.1897C27.1282 36.2599 27.1206 36.33 27.1072 36.3938ZM38.0866 25.3302C38.0866 26.5497 37.0941 27.5422 35.8746 27.5422C35.4581 27.5422 35.1188 27.2035 35.1188 26.7864V19.2423C35.1188 18.8258 35.4575 18.4865 35.8746 18.4865C37.0941 18.4865 38.0866 19.4789 38.0866 20.6984V25.3302Z" fill="#FF5E15"/>
<path d="M26.1952 25.66C28.4307 25.66 30.2491 23.841 30.2491 21.6061V13.3457C30.2491 12.2652 29.8269 11.2473 29.0602 10.4806C28.2936 9.71398 27.2763 9.29175 26.1952 9.29175H13.8049C11.5694 9.29175 9.75098 11.1102 9.75098 13.3457V21.6061C9.75098 23.8416 11.5694 25.66 13.8049 25.66H13.8808V27.8005C13.8808 28.6169 14.3675 29.3415 15.1201 29.647C15.3631 29.7446 15.6157 29.7931 15.8657 29.7931C16.3868 29.7931 16.8945 29.5864 17.2664 29.2018L20.8273 25.66H26.1952ZM19.759 24.0247L15.9053 27.8573C15.888 27.8752 15.8753 27.8886 15.8389 27.8726C15.7949 27.8547 15.7949 27.826 15.7949 27.8005V24.7033C15.7949 24.1752 15.3669 23.7466 14.8382 23.7466H13.8056C12.625 23.7466 11.6651 22.786 11.6651 21.6061V13.3457C11.6651 12.1651 12.625 11.2052 13.8056 11.2052H26.1958C26.766 11.2052 27.3024 11.4284 27.7081 11.8334C28.1137 12.2391 28.3363 12.7761 28.3363 13.3457V21.6061C28.3363 22.7867 27.3758 23.7466 26.1958 23.7466H20.4338C20.1805 23.7466 19.9382 23.8467 19.759 24.0247Z" fill="#FF5E15"/>
<path d="M15.3519 16.217C14.5738 16.217 13.9404 16.851 13.9404 17.6285C13.9404 18.406 14.5744 19.04 15.3519 19.04C16.1307 19.04 16.7647 18.406 16.7647 17.6285C16.7647 16.851 16.1313 16.217 15.3519 16.217Z" fill="#FF5E15"/>
<path d="M19.9994 16.217C19.2212 16.217 18.5879 16.851 18.5879 17.6285C18.5879 18.406 19.2219 19.04 19.9994 19.04C20.7788 19.04 21.4121 18.406 21.4121 17.6285C21.4121 16.851 20.7788 16.217 19.9994 16.217Z" fill="#FF5E15"/>
<path d="M24.6468 16.217C23.8687 16.217 23.2354 16.851 23.2354 17.6285C23.2354 18.406 23.8693 19.04 24.6468 19.04C25.4256 19.04 26.0596 18.406 26.0596 17.6285C26.0596 16.851 25.4256 16.217 24.6468 16.217Z" fill="#FF5E15"/>
</svg>
