<svg width="40" height="40" viewBox="0 0 40 40" fill="none" xmlns="http://www.w3.org/2000/svg">
<path d="M36.0916 31.1042C36.8818 30.0177 37.31 28.7101 37.3157 27.3666C37.3242 27.19 37.2622 27.0172 37.1432 26.8863C37.0243 26.7554 36.8583 26.6771 36.6816 26.6686C36.3152 26.6549 36.0051 26.9366 35.9836 27.3026C35.9886 28.3674 35.6606 29.407 35.0455 30.2761C33.7448 31.9189 31.2767 32.0022 30.7946 32.0022C30.4264 32.0022 30.1279 32.3007 30.1279 32.6689C30.1279 33.0371 30.4264 33.3356 30.7946 33.3356C31.384 33.3356 34.4088 33.2283 36.0916 31.1042Z" fill="white"/>
<path d="M22.6684 22.6684C22.6684 22.3002 22.3699 22.0017 22.0017 22.0017C21.6335 22.0017 21.335 22.3002 21.335 22.6684C21.335 24.1412 22.5289 25.3352 24.0018 25.3352V26.0019C24.0018 26.3701 24.3003 26.6686 24.6685 26.6686C25.0367 26.6686 25.3352 26.3701 25.3352 26.0019V25.3352C26.808 25.3352 28.002 24.1412 28.002 22.6684C28.002 21.1955 26.808 20.0016 25.3352 20.0016V17.3348C26.0716 17.3348 26.6686 17.9317 26.6686 18.6682C26.6686 19.0364 26.9671 19.3349 27.3353 19.3349C27.7035 19.3349 28.002 19.0364 28.002 18.6682C28.002 17.1953 26.808 16.0013 25.3352 16.0013V15.3346C25.3352 14.9664 25.0367 14.6679 24.6685 14.6679C24.3003 14.6679 24.0018 14.9664 24.0018 15.3346V16.0013C22.5289 16.0013 21.335 17.1953 21.335 18.6682C21.335 20.141 22.5289 21.335 24.0018 21.335V24.0018C23.2654 24.0018 22.6684 23.4048 22.6684 22.6684ZM22.6684 18.6682C22.6684 17.9317 23.2654 17.3348 24.0018 17.3348V20.0016C23.2654 20.0016 22.6684 19.4046 22.6684 18.6682ZM25.3352 21.335C26.0716 21.335 26.6686 21.932 26.6686 22.6684C26.6686 23.4048 26.0716 24.0018 25.3352 24.0018V21.335Z" fill="white"/>
<path d="M39.4449 22.5157C37.8021 15.5347 34.1499 11.4898 31.5124 9.37699C34.8199 9.62634 35.8847 11.0024 35.916 11.0437C36.1249 11.3419 36.5343 11.4174 36.8358 11.2133C37.1373 11.0093 37.2193 10.6011 37.0201 10.2964C36.9721 10.2244 36.046 8.90163 33.3532 8.29626C34.0417 7.73022 34.4491 6.89194 34.4686 6.0008C34.3794 4.52335 33.3509 3.2705 31.9191 2.89529C31.9778 2.4137 32.0076 1.92903 32.0084 1.44388C32.0077 0.996922 31.7831 0.580051 31.4102 0.33361C31.0374 0.0871689 30.5658 0.0439408 30.1543 0.218479C29.8178 0.370871 29.5051 0.571427 29.2263 0.813845C28.8991 1.15008 28.4487 1.33795 27.9796 1.33387C27.5112 1.33717 27.0617 1.14938 26.7348 0.813845C25.5599 -0.271322 23.7482 -0.271322 22.5733 0.813845C22.246 1.15081 21.7949 1.33879 21.3252 1.33387C20.8569 1.33777 20.4074 1.14987 20.0811 0.813845C19.803 0.571948 19.4913 0.371633 19.1557 0.219146C18.7445 0.0457773 18.2739 0.0895958 17.9018 0.335891C17.5296 0.582185 17.3054 0.998302 17.3043 1.44455C17.3043 3.10331 17.6323 6.06214 19.7091 8.04891C18.6177 8.71258 17.5983 9.48814 16.6676 10.363V5.3341C16.6676 3.81401 14.5175 2.66728 11.6673 2.66728C8.81716 2.66728 6.66704 3.81401 6.66704 5.3341V12.0511C4.32891 12.2845 2.66682 13.3345 2.66682 14.6679V31.6256C1.05606 32.0583 0 32.9356 0 34.0024V37.3359C0 38.856 2.15012 40.0027 5.00028 40.0027C7.54909 40.0027 9.53386 39.0846 9.92522 37.8026C11.0761 38.4119 12.3659 38.7106 13.6674 38.6693C16.5176 38.6693 18.6677 37.5226 18.6677 36.0025V27.3353C18.6677 25.8152 16.5176 24.6685 13.6674 24.6685C13.3334 24.6683 12.9997 24.685 12.6674 24.7185V14.6679C12.6674 13.2079 10.6826 12.0958 8.00045 12.0098V7.1802C9.13466 7.75669 10.3956 8.0389 11.6673 8.00091C12.9391 8.0389 14.2 7.75669 15.3342 7.1802V11.7271C14.8948 12.2185 14.4535 12.7538 14.0181 13.3472C13.8188 13.6441 13.8891 14.0454 14.1776 14.2567C14.466 14.468 14.8699 14.4142 15.0928 14.1346C15.521 13.5549 15.9799 12.9985 16.4676 12.4678C16.4729 12.4618 16.4776 12.4558 16.4829 12.4505C17.7556 11.0361 19.2501 9.83833 20.9078 8.90429C21.2347 9.06194 21.5804 9.17689 21.9366 9.24631L20.2178 10.8504C19.9486 11.1019 19.9343 11.524 20.1858 11.7931C20.4373 12.0623 20.8593 12.0766 21.1285 11.8251L23.7953 9.33765H24.008V11.3378C24.008 11.706 24.3065 12.0045 24.6747 12.0045C25.0429 12.0045 25.3414 11.706 25.3414 11.3378V9.33432H25.5541L28.2209 11.8218C28.395 11.9845 28.6427 12.0419 28.8706 11.9725C29.0986 11.903 29.2722 11.7172 29.326 11.4851C29.3798 11.253 29.3057 11.0098 29.1316 10.8471L27.4015 9.23631C27.7555 9.16625 28.0991 9.05085 28.4236 8.89296C30.1857 9.84635 35.978 13.6132 38.1475 22.8211C39.0908 26.8293 38.7508 29.8955 37.1374 31.9322C35.0733 34.5357 31.4918 34.6691 30.795 34.6691H21.3345C20.9663 34.6691 20.6678 34.9676 20.6678 35.3358C20.6678 35.704 20.9663 36.0025 21.3345 36.0025H30.795C31.9284 36.0025 35.7987 35.7685 38.1821 32.7603C40.0609 30.3875 40.4863 26.9406 39.4449 22.5157ZM5.00028 32.669C7.20507 32.669 8.66715 33.469 8.66715 34.0024C8.66715 34.5357 7.20507 35.3358 5.00028 35.3358C2.79549 35.3358 1.33341 34.5357 1.33341 34.0024C1.33341 33.469 2.79549 32.669 5.00028 32.669ZM5.00028 38.6693C2.79549 38.6693 1.33341 37.8692 1.33341 37.3359V35.8485C2.46762 36.425 3.72853 36.7072 5.00028 36.6692C6.27203 36.7072 7.53293 36.425 8.66715 35.8485V37.3359C8.66715 37.8692 7.20507 38.6693 5.00028 38.6693ZM13.6674 37.3359C11.4626 37.3359 10.0006 36.5358 10.0006 36.0025V29.1814C11.1348 29.7579 12.3957 30.0401 13.6674 30.0021C14.9392 30.0401 16.2001 29.7579 17.3343 29.1814V36.0025C17.3343 36.5358 15.8722 37.3359 13.6674 37.3359ZM17.3343 27.3353C17.3343 27.8687 15.8722 28.6687 13.6674 28.6687C11.4626 28.6687 10.0006 27.8687 10.0006 27.3353C10.0006 26.802 11.4626 26.0019 13.6674 26.0019C15.8722 26.0019 17.3343 26.802 17.3343 27.3353ZM8.66715 27.3353V32.1563C7.53293 31.5798 6.27203 31.2976 5.00028 31.3355C4.6663 31.3353 4.33252 31.352 4.00022 31.3855V16.5141C5.13444 17.0905 6.39534 17.3728 7.66709 17.3348C8.93884 17.3728 10.1997 17.0905 11.334 16.5141V24.9585C9.72321 25.3912 8.66715 26.2686 8.66715 27.3353ZM11.334 14.6679C11.334 15.2013 9.87188 16.0014 7.66709 16.0014C5.4623 16.0014 4.00022 15.2013 4.00022 14.6679C4.00022 14.1346 5.4623 13.3345 7.66709 13.3345C9.87188 13.3345 11.334 14.1346 11.334 14.6679ZM11.6673 6.6675C9.46253 6.6675 8.00045 5.86746 8.00045 5.3341C8.00045 4.80073 9.46253 4.00069 11.6673 4.00069C13.8721 4.00069 15.3342 4.80073 15.3342 5.3341C15.3342 5.86746 13.8721 6.6675 11.6673 6.6675ZM33.1352 6.0008C33.1352 7.09353 31.9518 7.99024 30.4684 8.00091C30.2202 7.99934 29.973 7.97095 29.731 7.91624C30.6986 6.88389 31.3712 5.61057 31.6784 4.22937C32.4809 4.46583 33.0582 5.16773 33.1352 6.0008ZM19.2464 1.8539C19.8094 2.38149 20.5536 2.67267 21.3252 2.66728C22.0972 2.67308 22.842 2.38187 23.4053 1.8539C23.7349 1.52118 24.1837 1.33399 24.652 1.33399C25.1203 1.33399 25.5692 1.52118 25.8988 1.8539C26.4621 2.38226 27.2072 2.67352 27.9796 2.66728C28.7518 2.67325 29.4968 2.38203 30.0603 1.8539C30.2451 1.69061 30.4507 1.55251 30.6717 1.44321C30.6717 2.68128 30.4417 5.74212 28.2936 7.42021C27.8103 7.78316 27.2245 7.98366 26.6201 7.99291C27.1973 7.0016 27.6541 5.94496 27.9809 4.8454C28.0447 4.61579 27.9812 4.36956 27.8143 4.19947C27.6473 4.02938 27.4023 3.96127 27.1716 4.02079C26.9408 4.08032 26.7593 4.25843 26.6955 4.48805C26.3262 5.74129 25.7586 6.92728 25.0141 8.00091H24.3287C23.5857 6.92633 23.0179 5.74063 22.6466 4.48805C22.5477 4.13328 22.18 3.92583 21.8252 4.02469C21.4704 4.12356 21.263 4.4913 21.3619 4.84607C21.6889 5.94657 22.1462 7.00411 22.7239 7.99624C22.1075 7.99308 21.5085 7.79132 21.0158 7.42088C18.8677 5.74345 18.6377 2.68262 18.6377 1.44855C18.8586 1.5544 19.0636 1.69086 19.2464 1.8539Z" fill="white"/>
<path d="M36.0916 31.1042C36.8818 30.0177 37.31 28.7101 37.3157 27.3667C37.3242 27.19 37.2622 27.0172 37.1432 26.8863C37.0243 26.7554 36.8583 26.6771 36.6816 26.6686C36.3155 26.6556 36.0058 26.937 35.9836 27.3026C35.9886 28.3674 35.6606 29.407 35.0455 30.2761C33.7448 31.9189 31.2767 32.0022 30.7946 32.0022C30.4264 32.0022 30.1279 32.3007 30.1279 32.6689C30.1279 33.0372 30.4264 33.3357 30.7946 33.3357C31.384 33.3357 34.4088 33.2283 36.0916 31.1042Z" fill="white"/>
</svg>
