<svg width="103" height="74" viewBox="0 0 103 74" fill="none" xmlns="http://www.w3.org/2000/svg">
<path fill-rule="evenodd" clip-rule="evenodd" d="M21.7434 53.7026C18.0169 58.954 10.9731 64.6072 1.38377 69.3135C-1.10825 70.5365 0.0159648 74.3273 2.76688 73.9773C22.915 71.4138 35.9741 62.5381 43.1054 49.3389C45.7578 44.4297 47.4242 39.2044 48.3116 33.8703C48.8967 30.3534 49.0513 27.714 49.0513 24.6656C49.0513 11.0432 38.0723 0 24.5291 0C10.9859 0 0.00694485 11.0432 0.00694485 24.6656C0.00694485 38.288 11.1611 49.3389 23.9789 49.3389C23.3027 51.2064 23.1403 51.7342 21.7434 53.7026ZM75.6922 53.7026C71.9656 58.954 64.9218 64.6072 55.3325 69.3135C52.8405 70.5365 53.9647 74.3273 56.7156 73.9773C76.8637 71.4138 89.9228 62.5381 97.0542 49.3389C99.7065 44.4297 101.373 39.2044 102.26 33.8703C102.845 30.3534 103 27.714 103 24.6656C103 11.0432 92.0211 0 78.4778 0C64.9346 0 53.9557 11.0432 53.9557 24.6656C53.9557 38.288 65.1098 49.3389 77.9277 49.3389C77.2514 51.2064 77.089 51.7342 75.6922 53.7026Z" fill="#FF5E15"/>
</svg>
