<svg width="40" height="35" viewBox="0 0 40 35" fill="none" xmlns="http://www.w3.org/2000/svg">
<path d="M39.9439 19.4585C39.9438 19.4583 39.9438 19.4582 39.9437 19.458L32.3915 0.495109C32.2313 0.092198 31.7746 -0.104497 31.3716 0.0557838C31.3714 0.055882 31.3711 0.0559801 31.3708 0.0561764L0.732602 12.256C0.607655 12.31 0.499296 12.3962 0.418518 12.5057C0.163717 12.6381 0.00274824 12.9002 0 13.1873V33.6028C0 34.0364 0.351578 34.388 0.785211 34.388H33.7641C34.1977 34.388 34.5493 34.0364 34.5493 33.6028V22.4528L39.5056 20.4787C39.9084 20.3181 40.1046 19.8613 39.9439 19.4585ZM32.9789 32.8175H1.57042V13.9725H32.9789V32.8175ZM13.1013 12.406L26.2488 7.16705C27.4222 8.40042 29.0481 9.10142 30.7504 9.10809L32.0617 12.406H13.1013ZM34.5493 20.7661V13.1873C34.5493 12.7536 34.1977 12.4021 33.7641 12.4021H33.7515L32.0877 8.22316C32.0692 8.18832 32.0477 8.15514 32.0233 8.12422C31.9391 7.74605 31.5889 7.488 31.2027 7.51961C29.6188 7.66399 28.0692 6.99676 27.0859 5.7466C26.8412 5.44459 26.4111 5.3695 26.0784 5.57072C26.0411 5.57513 26.0041 5.582 25.9677 5.59113L9.91643 11.9828C9.72219 12.0589 9.56682 12.21 9.48535 12.4021H4.61076L31.2231 1.80563L38.195 19.3119L34.5493 20.7661Z" fill="white"/>
<path d="M3.70127 27.5166C5.22575 27.9672 6.41869 29.1586 6.87116 30.6825C6.9704 31.0152 7.27633 31.2431 7.6234 31.2432C7.66413 31.2406 7.70457 31.2345 7.74432 31.2251C7.77956 31.2351 7.81558 31.2425 7.85189 31.2471H26.697C26.7294 31.2429 26.7614 31.2363 26.7928 31.2275C27.1851 31.3229 27.5804 31.0823 27.6759 30.69C27.6762 30.6885 27.6766 30.6871 27.6769 30.6857C28.1282 29.1602 29.3213 27.9671 30.8468 27.5158C31.2167 27.4027 31.4466 27.0341 31.3855 26.652C31.396 26.614 31.4035 26.5751 31.4082 26.5358V20.2541C31.4036 20.2148 31.3958 20.1759 31.3847 20.1379C31.4462 19.7558 31.2162 19.387 30.846 19.2742C29.3206 18.823 28.1277 17.6294 27.6777 16.1035C27.564 15.731 27.1917 15.5006 26.8077 15.5649C26.7714 15.5548 26.7344 15.5474 26.697 15.5429H7.85189C7.81234 15.5476 7.77318 15.5554 7.7349 15.5664C7.35299 15.5056 6.98453 15.7354 6.87116 16.1051C6.41957 17.6303 5.22654 18.823 3.70127 19.2742C3.33133 19.3873 3.10146 19.7559 3.16261 20.1379C3.1524 20.1761 3.14504 20.2149 3.14062 20.2541V26.5358C3.14514 26.5727 3.1525 26.6093 3.16261 26.645C3.09822 27.0294 3.32859 27.4022 3.70127 27.5166ZM4.71105 20.5729C6.28775 19.9397 7.53742 18.69 8.17069 17.1133H26.3774C27.011 18.69 28.2609 19.9397 29.8378 20.5729V26.217C28.2616 26.851 27.0121 28.1005 26.3782 29.6767H8.17069C7.53673 28.1005 6.28726 26.851 4.71105 26.217V20.5729Z" fill="white"/>
<path d="M17.2738 28.1063C19.8758 28.1063 21.985 25.997 21.985 23.395C21.985 20.793 19.8758 18.6837 17.2738 18.6837C14.6718 18.6837 12.5625 20.793 12.5625 23.395C12.5651 25.9959 14.6729 28.1037 17.2738 28.1063ZM17.2738 20.2541C19.0084 20.2541 20.4146 21.6604 20.4146 23.395C20.4146 25.1296 19.0084 26.5358 17.2738 26.5358C15.5391 26.5358 14.1329 25.1296 14.1329 23.395C14.1329 21.6604 15.5391 20.2541 17.2738 20.2541Z" fill="white"/>
<path d="M8.6368 24.5728C9.28725 24.5728 9.81462 24.0454 9.81462 23.395C9.81462 22.7445 9.28725 22.2172 8.6368 22.2172C7.98635 22.2172 7.45898 22.7445 7.45898 23.395C7.45898 24.0455 7.98635 24.5728 8.6368 24.5728ZM8.6368 23.0024C8.85362 23.0024 9.02941 23.1782 9.02941 23.395C9.02941 23.6118 8.85362 23.7876 8.6368 23.7876C8.41998 23.7876 8.2442 23.6118 8.2442 23.395C8.2442 23.1782 8.41998 23.0024 8.6368 23.0024Z" fill="white"/>
<path d="M25.9122 24.5728C26.5626 24.5728 27.09 24.0454 27.09 23.395C27.09 22.7445 26.5626 22.2172 25.9122 22.2172C25.2617 22.2172 24.7344 22.7445 24.7344 23.395C24.7344 24.0455 25.2617 24.5728 25.9122 24.5728ZM25.9122 23.0024C26.129 23.0024 26.3048 23.1782 26.3048 23.395C26.3048 23.6118 26.129 23.7876 25.9122 23.7876C25.6954 23.7876 25.5196 23.6118 25.5196 23.395C25.5196 23.1782 25.6954 23.0024 25.9122 23.0024Z" fill="white"/>
</svg>
